<?xml version="1.0" encoding="UTF-8" standalone="no" ?>
<!DOCTYPE svg PUBLIC "-//W3C//DTD SVG 1.1//EN" "http://www.w3.org/Graphics/SVG/1.1/DTD/svg11.dtd">
<svg xmlns="http://www.w3.org/2000/svg" xmlns:xlink="http://www.w3.org/1999/xlink" version="1.1" width="1280" height="1024" viewBox="0 0 1280 1024" xml:space="preserve">
<desc>Created with Fabric.js 5.3.0</desc>
<defs>
</defs>
<g transform="matrix(1 0 0 1 640 512)" id="background-logo"  >
<rect style="stroke: none; stroke-width: 0; stroke-dasharray: none; stroke-linecap: butt; stroke-dashoffset: 0; stroke-linejoin: miter; stroke-miterlimit: 4; fill: rgb(255,255,255); fill-opacity: 0; fill-rule: nonzero; opacity: 1;"  paint-order="stroke"  x="-640" y="-512" rx="0" ry="0" width="1280" height="1024" />
</g>
<g transform="matrix(1.9211538461538462 0 0 1.9211538461538462 648.5350584970334 550.1059913733933)" id="text-logo"  >
<g style=""  paint-order="stroke"   >
		<g transform="matrix(1 0 0 1 0 0)" id="text-logo-path-0"  >
<path style="stroke: none; stroke-width: 1.3764705882352941; stroke-dasharray: none; stroke-linecap: butt; stroke-dashoffset: 0; stroke-linejoin: miter; stroke-miterlimit: 4; fill: rgb(255,255,255); fill-rule: nonzero; opacity: 1;"  paint-order="stroke"  transform=" translate(-169.11082377103193, 16.682830993536896)" d="M 64.47 20.71 C 56.28 15.68 47.27 11.35 37.79 7.96 C 31.82 5.85 26.44 4.33 22 3.28 C 27.73 1.64 33.7 -0.82 39.55 -3.86 C 48.91 -8.66 57.92 -14.98 66.11 -22.35 C 73.59 -29.02 80.03 -36.27 84.71 -43.41 C 87.98 -48.44 91.84 -55.81 91.61 -61.78 C 91.49 -64.58 90.09 -71.25 80.03 -71.25 C 70.2 -71.25 58.03 -68.09 45.98 -62.24 L 49.61 -70.55 C 50.19 -71.84 49.61 -73.24 48.32 -73.83 C 47.03 -74.41 45.51 -73.94 44.93 -72.54 L 38.84 -58.38 C 28.9 -52.65 20.48 -45.86 15.21 -39.2 C 14.39 -38.14 14.63 -36.39 15.68 -35.57 C 16.85 -34.63 18.37 -34.98 19.19 -36.04 C 23.05 -40.83 28.78 -45.86 35.45 -50.31 L 28.08 -32.06 C 23.28 -20.12 19.19 -9.48 15.91 -0.47 C 13.34 0.12 10.65 0.59 8.19 0.82 C 6.79 0.94 5.85 2.11 5.85 3.39 C 5.85 4.56 6.9 5.73 8.19 5.85 L 13.34 6.67 C 9.83 16.73 7.37 24.92 5.97 30.89 C 5.62 32.18 6.32 33.7 7.84 34.05 L 8.42 34.05 C 9.48 34.05 10.65 33.23 10.88 32.06 C 12.4 25.62 15.09 17.08 18.37 7.72 C 23.28 8.78 29.13 10.3 36.04 12.75 C 45.4 16.15 54.05 20.36 61.78 25.16 C 71.72 31.24 80.15 38.38 87.17 46.45 C 87.63 47.03 88.34 47.39 89.04 47.39 C 89.51 47.39 90.32 47.03 90.68 46.68 C 91.73 45.86 91.84 44.11 91.03 43.17 C 83.66 34.63 74.65 27.03 64.47 20.71 Z M 42.94 -54.76 C 54.87 -61.43 68.45 -66.11 80.03 -66.11 C 85.41 -66.11 86.35 -63.77 86.46 -61.54 C 86.58 -59.55 86 -54.76 80.38 -46.22 C 76.17 -39.66 69.85 -32.53 62.71 -26.09 C 54.87 -19.07 46.1 -12.99 37.21 -8.42 C 31.94 -5.62 26.91 -3.51 21.88 -1.99 C 28.9 -20.83 37.21 -41.07 42.94 -54.76 Z M 129.87 -13.57 C 128.7 -14.39 127.18 -14.16 126.36 -12.99 C 119.69 -3.51 115.6 -1.17 113.49 -0.59 C 113.61 -1.64 113.96 -4.1 115.6 -8.78 L 118.05 -14.98 L 118.76 -16.61 C 119.11 -17.9 118.52 -19.3 117.23 -19.77 C 115.95 -20.24 114.54 -19.66 113.96 -18.37 L 113.37 -17.08 L 112.79 -16.03 C 111.97 -16.73 110.33 -18.14 107.99 -18.14 C 104.83 -18.14 101.56 -15.8 98.87 -11.7 C 96.53 -8.42 95.12 -4.45 95.12 -1.64 C 95.12 -0.47 95.47 0.7 95.94 1.52 C 96.76 2.57 98.05 3.28 99.45 3.28 C 101.91 3.28 104.95 1.4 108.58 -2.22 C 108.23 0.12 108.46 1.76 109.16 2.93 C 109.98 3.98 111.15 4.68 112.55 4.68 C 117.59 4.68 123.55 -0.12 130.57 -10.06 C 131.27 -11.23 131.04 -12.75 129.87 -13.57 Z M 107.41 -8.54 C 103.78 -4.45 101.44 -2.69 100.27 -2.11 C 100.39 -3.63 101.44 -6.67 103.43 -9.36 C 105.07 -11.58 106.82 -12.99 107.99 -12.99 C 108.46 -12.99 108.93 -12.64 109.28 -12.29 L 109.75 -11.58 C 109.04 -10.53 108.23 -9.59 107.41 -8.54 Z M 199.49 -13.69 C 198.32 -14.39 196.79 -14.04 196.09 -12.75 C 193.52 -8.19 186.62 1.17 181.82 1.17 C 181.35 1.17 181.12 1.05 181.12 0.94 C 181 0.94 180.65 0.47 180.88 -1.4 C 181 -2.93 181.35 -4.8 181.7 -6.32 C 182.4 -9.36 182.87 -11.47 181.7 -12.99 C 181.12 -13.69 180.3 -14.04 179.36 -14.04 C 178.31 -14.04 176.79 -13.69 173.39 -11.23 C 175.15 -15.56 176.44 -20.48 174.8 -23.28 C 173.98 -24.69 172.58 -25.51 170.94 -25.51 C 168.48 -25.51 164.5 -23.87 155.14 -12.05 L 160.06 -25.27 C 160.52 -26.56 159.82 -28.08 158.54 -28.55 C 157.13 -29.02 155.73 -28.31 155.26 -27.03 L 143.91 3.74 C 143.56 5.03 144.03 6.44 145.2 7.02 C 145.55 7.14 146.02 7.25 146.37 7.25 C 147.19 7.25 148.01 6.79 148.47 6.08 C 148.59 5.97 152.92 -0.7 158.07 -7.49 C 165.91 -17.55 169.3 -19.77 170.47 -20.24 C 170.47 -19.19 170.24 -16.73 167.9 -11.35 C 166.26 -7.14 164.27 -3.39 164.27 -3.39 C 163.68 -2.22 163.92 -0.94 164.85 -0.12 C 165.91 0.59 167.31 0.59 168.25 -0.23 C 168.25 -0.35 170.59 -2.46 173.16 -4.56 L 176.67 -7.25 C 175.85 -3.39 174.8 1.29 177.02 4.21 C 177.84 5.15 179.24 6.2 181.82 6.2 C 185.8 6.2 190.24 3.39 194.92 -2.34 C 198.2 -6.2 200.42 -10.06 200.54 -10.3 C 201.24 -11.47 200.77 -12.99 199.49 -13.69 Z M 228.38 -23.28 C 228.85 -22.82 229.44 -22.7 230.02 -22.7 C 230.84 -22.7 231.54 -22.93 232.01 -23.52 C 232.48 -24.1 234.94 -27.14 235.64 -29.72 C 235.99 -31.01 235.29 -32.41 233.88 -32.76 C 232.48 -33.23 231.08 -32.41 230.72 -31.01 C 230.49 -29.95 228.97 -27.96 228.15 -26.91 C 227.21 -25.74 227.33 -24.22 228.38 -23.28 Z M 239.85 -13.46 C 238.68 -14.27 237.16 -14.04 236.22 -12.87 C 236.22 -12.87 234.47 -10.65 231.89 -8.31 C 228.62 -5.5 225.46 -3.98 223 -3.98 L 222.42 -3.98 C 222.3 -4.33 222.3 -5.85 224.06 -9.71 C 225.34 -12.4 226.98 -14.98 227.68 -15.91 C 228.5 -17.08 228.27 -18.72 227.1 -19.54 C 225.93 -20.36 224.41 -20.01 223.59 -18.95 C 222.65 -17.67 220.9 -14.86 219.38 -11.82 C 217.15 -7.14 216.68 -3.86 217.85 -1.52 C 218.44 -0.59 219.84 1.17 223 1.17 C 231.89 1.17 239.97 -9.36 240.32 -9.83 C 241.14 -11 241.02 -12.52 239.85 -13.46 Z M 314.85 -40.13 C 305.49 -41.18 292.27 -41.3 275.65 -40.83 C 278.34 -47.97 280.22 -52.42 280.22 -52.42 C 280.68 -53.7 280.1 -55.22 278.81 -55.81 C 277.52 -56.28 276 -55.69 275.42 -54.41 L 270.15 -40.6 C 257.63 -40.13 248.04 -39.43 247.92 -39.43 C 246.52 -39.31 245.47 -38.14 245.58 -36.74 C 245.7 -35.33 246.75 -34.28 248.16 -34.28 L 248.27 -34.28 C 248.51 -34.4 256.93 -34.98 268.16 -35.45 L 264.65 -25.51 C 259.27 -10.41 252.02 11.58 247.92 29.84 C 247.57 31.24 248.51 32.53 249.8 32.88 L 250.38 32.88 C 251.55 32.88 252.6 32.06 252.95 30.89 C 256.93 12.87 264.07 -8.78 269.45 -23.87 L 273.78 -35.69 C 287.12 -36.15 302.91 -36.27 314.38 -35.1 C 315.78 -34.98 317.07 -36.04 317.19 -37.44 C 317.3 -38.84 316.25 -40.01 314.85 -40.13 Z M 330.76 -13.92 C 329.47 -14.39 327.95 -13.81 327.48 -12.52 C 327.37 -12.4 323.04 -2.57 317.19 -2.57 C 317.19 -3.74 318.24 -6.55 318.82 -8.07 C 320.23 -12.05 321.4 -15.33 319.76 -17.78 C 319.41 -18.37 318.24 -19.42 316.13 -19.42 C 312.51 -19.42 308.53 -16.03 305.14 -12.4 L 328.07 -77.34 C 328.54 -78.62 327.83 -80.03 326.55 -80.61 C 325.26 -81.08 323.74 -80.38 323.27 -78.98 L 295.07 0.59 C 294.72 1.76 295.19 3.16 296.36 3.74 C 296.71 3.86 297.18 3.98 297.53 3.98 C 298.35 3.98 299.17 3.63 299.64 2.81 C 299.64 2.81 302.68 -1.64 306.31 -6.08 C 311.34 -12.05 314.14 -13.69 315.43 -14.16 L 314.03 -9.83 C 312.51 -5.85 311.1 -1.99 312.98 0.59 C 313.56 1.52 314.73 2.57 317.07 2.57 C 326.43 2.57 331.93 -9.95 332.16 -10.53 C 332.75 -11.82 332.05 -13.34 330.76 -13.92 Z" stroke-linecap="round" />
</g>
</g>
</g>
</svg>